<?xml version="1.0" standalone="no"?>
<svg viewBox="0 0 200 200" xmlns="http://www.w3.org/2000/svg">
  <path fill="#FF6600" d="M37.1,-57.7C43.2,-60.8,39.8,-40.9,37,-27.5C34.3,-14,32.1,-7,26.1,-3.5C20,0,10.1,0.1,7.6,4.4C5.1,8.7,10,17.3,10,18.4C10,19.6,5,13.3,-1.5,15.8C-7.9,18.3,-15.8,29.7,-22.9,32.6C-30,35.6,-36.4,30.1,-44,23.3C-51.6,16.5,-60.4,8.2,-59.1,0.8C-57.8,-6.7,-46.3,-13.4,-40.3,-23.1C-34.4,-32.8,-34,-45.6,-28.2,-42.7C-22.4,-39.7,-11.2,-21.2,2.2,-24.9C15.5,-28.6,31,-54.7,37.1,-57.7Z" transform="translate(100 100)" />
</svg>
