<?xml version="1.0" standalone="no"?>
<svg viewBox="0 0 200 200" xmlns="http://www.w3.org/2000/svg">
  <path fill="#FF983F" d="M46.4,-65.3C58.5,-64.4,65.5,-48.8,62.7,-34.6C60,-20.4,47.4,-7.7,45.5,6.7C43.6,21,52.4,37.1,47.3,38.4C42.1,39.7,22.9,26.3,8.6,31.5C-5.7,36.7,-15.2,60.5,-21.4,63.2C-27.6,65.8,-30.5,47.4,-41.9,35.5C-53.3,23.7,-73.3,18.6,-81,7.7C-88.7,-3.2,-84.1,-19.7,-77.1,-35.3C-70.1,-50.8,-60.6,-65.2,-47.4,-65.6C-34.1,-66,-17.1,-52.3,0,-52.4C17.1,-52.4,34.3,-66.2,46.4,-65.3Z" transform="translate(100 100)" />
</svg>
